<svg width="97" height="33" xmlns="http://www.w3.org/2000/svg"><path d="M74.618 8l-1.331 1.376h-1.77c1.45 1.274 2.086 2.635 2.086 4.217 0 2.306-1.259 3.462-2.15 4.243-.163.15-.598.462-.85.736-.142.168-.531.613-.531 1.285 0 .47.151.869.931 1.496 2.654 2.055 3.702 3.246 3.702 5.42 0 3.085-2.836 6.227-8.313 6.227-4.625 0-6.827-2.338-6.827-4.714 0-2.713 2.434-5.238 8.49-5.619-.64-.75-.942-1.237-.942-2.104.001-.589.244-1.197.244-1.197h-.89c-3.52 0-5.226-2.777-5.226-5.238C61.241 10.895 63.635 8 68.06 8h6.558zM68.59 23.664c-4.543.065-6.2 1.836-6.2 3.894 0 2.485 2.417 4.006 5.579 4.006 2.88 0 4.658-1.554 4.658-3.535 0-1.442-.808-2.25-2.103-3.31-.557-.439-1.353-1.027-1.353-1.027s-.243-.028-.58-.028zM13.512 0c4.22 0 7.172 1.284 9.21 2.636L19.5 5.794V3.891c-1.719-1.527-3.64-2.623-6.942-2.623-5.219 0-8.96 3.966-8.96 9.621 0 5.766 4.136 11.67 11.172 11.67 1.736 0 3.406-.23 4.729-.646V16.08h-4.24l1.42-1.38h7.56l-1.113 1.09c-.206.186-.344.398-.344.706v6.027C19.25 23.485 16.197 24 12.757 24 5.66 24 .015 19.425.015 11.83.015 6.492 4.249 0 13.512 0zm20.227 8c4.6.001 7.658 3.606 7.658 7.318 0 3.985-3.129 7.682-8.23 7.682-5.302 0-7.919-4.014-7.919-7.394C25.248 11.69 28.497 8 33.74 8zm47.873-8l-1.16 1.14a.878.878 0 00-.306.69v19.09c0 .41.295.831.79.89l1.844.227-.98.963h-6.425l1.177-1.154c.193-.197.283-.388.283-.669V1.403h-2.13L76.132 0h5.48zm8.66 8c3.852 0 5.528 1.987 6.123 3.96L86.1 15.833c.983 3.597 3.792 5.554 6.706 5.554 1.534 0 2.688-.436 4.103-1.1-.75.933-1.776 1.676-2.844 2.134-.995.425-2.057.579-3.346.579-5.172 0-7.94-3.978-7.94-7.798C82.78 10.576 86.638 8 90.27 8zM51.906 8c4.6.001 7.658 3.606 7.658 7.318 0 3.985-3.13 7.682-8.23 7.682-5.302 0-7.919-4.014-7.919-7.394C43.416 11.69 46.665 8 51.907 8zM32.87 9.076c-.6 0-1.514.114-2.49.715-1.194.802-1.952 1.891-1.952 4.122 0 2.24.79 4.533 1.597 5.766.918 1.34 2.143 2.36 3.897 2.36h.069c.684-.015 4.221-.29 4.221-5.017 0-3.308-1.646-7.946-5.342-7.946zm18.168 0c-.6 0-1.515.114-2.49.715-1.194.802-1.952 1.891-1.952 4.122 0 2.24.79 4.533 1.597 5.766.917 1.34 2.143 2.36 3.897 2.36h.069c.684-.015 4.221-.29 4.221-5.017 0-3.308-1.646-7.946-5.342-7.946zm15.801-.047c-1.547 0-2.848 1.2-2.848 3.458 0 2.5 1.17 4.603 2.348 5.392.53.375 1.157.526 1.68.526 1.067 0 3.04-.718 3.04-3.344 0-2.432-1.254-4.398-2.039-5.13-.708-.609-1.378-.902-2.18-.902zm22.758.03c-1.288 0-3.9.898-3.9 4.26 0 .801.172 1.543.172 1.543l6.328-2.382c.503-.185.758-.384.758-.762 0-1.168-1.41-2.66-3.358-2.66z" fill="#36536B" fill-rule="nonzero"/></svg>