<svg width="142" height="27" xmlns="http://www.w3.org/2000/svg"><path d="M69.493 16.373L74.305 27h-2.478l-.868-1.923h-6.086L64.015 27h-2.572l4.907-10.627h3.143zm50.612 0c1.715 0 3.191 1.202 3.191 3.366 0 1.923-.38 2.644-.953 3.126.762.384.953 1.297.953 1.922v2.211h-2.286v-1.922c0-.433-.477-1.203-1.43-1.203h-4.095V27h-2.382V16.373zm-29.566.01v3.984h1.046l4.138-3.984h3.234l-5.09 4.991 4.233 4.224v1.392h-1.808l-4.517-4.416H90.54v4.416h-2.427V16.383h2.427zm-31.815.006c1.282 0 3.04.815 3.04 3.835 0 2.973-1.616 3.787-3.041 3.787h-5.226v2.973h-2.423V16.389zm74.75.002c1.995 0 2.945 1.39 2.945 3.259v3.237c-.012 1.508-.265 4.094-2.992 4.094h-7.74v-10.59zm-26.99.003l4.797 10.585h-2.47l-.865-1.916h-6.067l-.854 1.916h-1.899v-1.485l4.225-9.1h3.133zm-22.863.006c1.518.047 2.418 1.627 2.418 2.536v.908H83.62c-.049-.479-.475-1.195-.854-1.195h-4.175c-.947 0-.805.956-.805.956v4.21c0 .766.474.957.759.957h4.126c.9 0 .997-.765.997-1.244h2.37v.957c0 1.58-1.09 2.488-2.417 2.488h-5.787c-1.803 0-2.467-1.388-2.467-2.488v-5.598c0-1.195 1.28-2.487 2.419-2.487zM40.52 0c1.97 0 3.567 1.58 3.567 3.57v19.72a3.6 3.6 0 01-1.046 2.539 3.537 3.537 0 01-2.52 1.044H23.662l.718-2.17c5.98-.888 10.545-5.597 10.545-11.273 0-6.106-5.283-11.094-11.929-11.409L23.76 0h16.76zM17.886 0l-.855 2.4c-4.115 2.205-7.199 6.638-7.199 11.03 0 4.998 3.55 9.408 8.488 11.01l-.861 2.433H4.252c-1.965 0-3.558-1.625-3.558-3.61V3.598C.693 1.614 2.285.004 4.252.001h13.634zm11.91 7.902c1.328 0 2.705.698 1.993 2.605l-2.041 5.677c-.38 1.07-.712 1.815-2.706 1.815h-2.495L21.727 26H19.02l6.36-18.098zm103.062 10.694h-4.75v6.18h4.56c.854 0 1.329-.814 1.329-1.724v-3.02c.049-.669-.426-1.436-1.14-1.436zm-64.937-.252l-2.048 4.52h4.049l-2.001-4.52zm36.997.014l-2.042 4.502h4.074l-2.032-4.502zm-46.907.236h-4.514v3.212h4.656c1.046 0 1.046-1.102 1.046-1.581v-.07c-.003-.512-.054-1.56-1.188-1.56zm61.568-.009h-4.095v3.077h4.382c.905 0 1.143-1.106 1.143-1.634 0-.53-.238-1.443-1.43-1.443zM21.934 0l-2.838 7.947h1.609c1.655 0 2.507.696 2.081 2.086-.426 1.39-2.838 7.969-2.838 7.969h-2.79l2.79-7.784c.094-.464.094-.88-.472-.88h-.852l-3.121 8.664h-2.697V18L19.191 0h2.743zM28.8 9.298h-1.187l-2.574 7.305h1.197c.475 0 .712-.512.76-.791.003-.017.012-.051.028-.102l.063-.198c.146-.442.447-1.301.77-2.213l.177-.5c.505-1.419 1.003-2.803 1.003-2.803.142-.372.19-.698-.237-.698zM78.28.156l2.241 7.264L82.904.204h2.287l2.382 7.216 2.24-7.264h2.43l-3.43 10.632h-1.43c-.715-.001-1.405-1.083-1.549-1.612L84.048 3.62l-2.335 7.168h-1.477c-.715 0-1.335-1.106-1.478-1.635L75.85.156h2.43zm58.079.002V2.37h-3.548v8.413h-2.428V2.37h-3.5V.158h9.476zM74.48.167v2.21h-7.325v1.968h6.088v2.208h-6.088v2.016h7.325v2.207h-8.228c-.952 0-1.522-.768-1.522-1.392V1.751c0-.96.57-1.584 1.664-1.584h8.086zm50.658-.002v2.21h-3.545v8.401h-2.425V2.375h-3.497V.165h9.467zm-11.244.006v2.206h-7.32v1.967h6.084V6.55h-6.084v2.015h7.32v2.206h-8.223c-.952 0-1.522-.767-1.522-1.391V1.755c0-.96.57-1.584 1.664-1.584h8.08zM53.497.174v4.17h6.319V.175h2.423v10.595h-2.423v-4.22h-6.32v4.22h-2.422V.174h2.423zm42.929.004V8.56h6.41v2.204h-7.123c-1.092 0-1.71-.766-1.71-1.58V.177h2.423zm43.216-.084c.627-.01 1.23.24 1.669.692.458.462.689 1.021.689 1.677.01.634-.24 1.243-.69 1.686a2.26 2.26 0 01-1.668.699 2.244 2.244 0 01-1.665-.699 2.317 2.317 0 01-.683-1.686 2.3 2.3 0 01.69-1.677 2.255 2.255 0 011.658-.692zm.001.32c-.56 0-1.036.2-1.431.602-.394.399-.59.881-.59 1.446-.01.546.202 1.073.587 1.457a1.93 1.93 0 001.433.602c.54.009 1.06-.21 1.434-.602.394-.402.59-.887.59-1.457 0-.565-.196-1.047-.59-1.446a1.941 1.941 0 00-1.433-.602z" fill="#36536B" fill-rule="nonzero"/></svg>