<svg width="148" height="31" xmlns="http://www.w3.org/2000/svg"><path d="M15.922 16v15H.782V16h15.14zm16.149 0v15H16.93V16h15.14zm79.549-4.777c.457 0 .983.054 1.562.16.582.107 1.061.238 1.425.392l.05.021v2.858l-.13-.087a5.195 5.195 0 00-1.403-.642 5.593 5.593 0 00-1.607-.244c-.57 0-1.023.127-1.35.376-.323.248-.48.554-.48.936 0 .432.127.772.378 1.013.261.25.894.574 1.881.965 1.24.493 2.128 1.05 2.64 1.659.516.612.777 1.372.777 2.258 0 1.228-.486 2.232-1.444 2.985-.953.748-2.258 1.127-3.88 1.127-.525 0-1.13-.07-1.795-.205-.667-.135-1.232-.308-1.681-.512l-.049-.022v-3.014l.132.094a6.547 6.547 0 001.776.888c.639.208 1.222.313 1.733.313 1.38 0 2.05-.43 2.05-1.313 0-.31-.067-.561-.197-.745-.134-.187-.371-.38-.706-.572-.342-.195-.88-.443-1.603-.736-.86-.365-1.508-.723-1.928-1.065a3.28 3.28 0 01-.948-1.221c-.204-.465-.308-1.013-.308-1.63 0-1.187.482-2.168 1.431-2.916.944-.744 2.18-1.12 3.674-1.12zM137.763 5c.734 0 1.327.078 1.762.232l.055.02v2.656l-.117-.052a3.424 3.424 0 00-1.379-.31c-.623 0-1.111.198-1.453.586-.344.394-.519.983-.519 1.753v1.655h4.704V8.57l.059-.018 2.98-.9.106-.032v3.92h3.173v2.521h-3.172v6.205c0 .795.144 1.364.43 1.689.281.322.735.485 1.35.485.162 0 .373-.035.626-.105.25-.069.465-.161.637-.274l.13-.084v2.544l-.042.025c-.19.106-.51.206-.981.306a6.562 6.562 0 01-1.347.148c-2.62 0-3.95-1.409-3.95-4.189v-6.75h-4.703v10.622h-3.171V14.06h-2.21V11.54h2.21V9.72c0-.913.204-1.739.607-2.454a4.246 4.246 0 011.716-1.673c.733-.394 1.574-.593 2.5-.593zm-13.973 6.223c2.07 0 3.71.608 4.877 1.806 1.166 1.198 1.757 2.865 1.757 4.955 0 2.116-.63 3.833-1.873 5.102-1.243 1.27-2.953 1.913-5.082 1.913-2.043 0-3.694-.61-4.907-1.817-1.214-1.206-1.829-2.86-1.829-4.919 0-2.166.63-3.9 1.873-5.152 1.244-1.253 2.988-1.888 5.184-1.888zm-25.402 0c2.069 0 3.71.608 4.876 1.806 1.166 1.198 1.758 2.865 1.758 4.955 0 2.116-.63 3.833-1.873 5.102-1.243 1.27-2.953 1.913-5.082 1.913-2.043 0-3.694-.61-4.907-1.817-1.214-1.206-1.83-2.86-1.83-4.919 0-2.166.631-3.9 1.874-5.152 1.243-1.253 2.988-1.888 5.184-1.888zm-20.614 0c.56 0 1.148.062 1.75.186.606.123 1.093.286 1.45.483l.043.024V14.9l-.132-.094c-.95-.68-1.953-1.023-2.982-1.023-1.204 0-2.193.402-2.939 1.196-.748.797-1.127 1.876-1.127 3.208 0 1.324.364 2.376 1.082 3.126.716.748 1.703 1.128 2.932 1.128.443 0 .947-.097 1.501-.287a5.917 5.917 0 001.533-.788l.132-.095v2.833l-.042.023c-1.019.58-2.29.873-3.779.873-1.276 0-2.428-.277-3.425-.822a5.855 5.855 0 01-2.344-2.339c-.557-1.004-.839-2.144-.839-3.385 0-1.418.291-2.69.863-3.777a6.127 6.127 0 012.513-2.55c1.09-.6 2.372-.904 3.81-.904zm12.076.089c.523 0 .935.062 1.227.184l.05.021v3.117l-.13-.094c-.146-.103-.392-.201-.731-.292a3.724 3.724 0 00-.942-.136c-.833 0-1.515.355-2.026 1.056-.519.71-.781 1.648-.781 2.792v6.723h-3.133V11.54h3.133v2.276h.033c.293-.739.675-1.331 1.205-1.763a3.236 3.236 0 012.095-.741zm-21.42.228v13.143h-3.132V11.54h3.133zM46.77 6.343l5.458 13.622 5.624-13.622h4.425v18.34H59.08V10.57h-.103l-5.674 14.113h-2.267l-5.764-14.114h-.103v14.114h-3.005V6.343h4.605zm76.854 7.44c-1.134 0-2.033.382-2.673 1.136-.643.759-.97 1.85-.97 3.243 0 1.351.327 2.414.97 3.16.64.742 1.547 1.119 2.698 1.119 1.158 0 2.044-.37 2.633-1.098.593-.733.894-1.83.894-3.257 0-1.41-.32-2.492-.95-3.217-.627-.72-1.503-1.086-2.602-1.086zm-25.402 0c-1.134 0-2.033.382-2.672 1.136-.644.759-.97 1.85-.97 3.243 0 1.351.325 2.414.969 3.16.64.742 1.547 1.119 2.698 1.119 1.158 0 2.044-.37 2.632-1.098.594-.733.894-1.83.894-3.257 0-1.41-.32-2.492-.95-3.217-.627-.72-1.502-1.086-2.601-1.086zM15.922 0v15H.782V0h15.14zM32.07 0v15H16.93V0h15.14zm34.825 5.941c.543 0 1.001.178 1.362.53.362.353.546.782.546 1.276 0 .503-.189.929-.56 1.264-.37.334-.823.503-1.347.503-.525 0-.976-.17-1.341-.503a1.646 1.646 0 01-.554-1.264c0-.512.189-.945.56-1.29.369-.343.819-.516 1.334-.516z" fill="#36536B" fill-rule="nonzero"/></svg>