<?xml version="1.0"?>
<svg width="518" height="120" xmlns="http://www.w3.org/2000/svg" xmlns:svg="http://www.w3.org/2000/svg">
 <g class="layer">
  <title>Layer 1</title>
  <path d="m0,27.66c0,-7.77 8.48,-12.57 15.14,-8.57l25.15,15.08c6.02,3.62 9.71,10.13 9.71,17.15l0,17.36c0,7.02 -3.69,13.53 -9.71,17.15l-25.15,15.08c-6.66,4 -15.14,-0.8 -15.14,-8.57l0,-64.68z" fill="#FA776C" id="svg_1"/>
  <path d="m103.86,0c5.29,0 7.99,6.36 4.31,10.17l-13.27,13.73c-3.77,3.9 -8.96,6.1 -14.38,6.1l-24.98,0c-3.63,0 -7.18,-0.99 -10.29,-2.85l-26.68,-16.01c-5.21,-3.13 -2.99,-11.14 3.09,-11.14l82.2,0z" fill="#624CF5" id="svg_2"/>
  <path d="m103.86,120c5.29,0 7.99,-6.36 4.31,-10.17l-13.27,-13.73c-3.77,-3.9 -8.96,-6.1 -14.38,-6.1l-24.98,0c-3.63,0 -7.18,0.99 -10.29,2.85l-26.68,16.01c-5.21,3.13 -2.99,11.14 3.09,11.14l82.2,0z" fill="#624CF5" id="svg_3"/>
  <rect fill="#FA776C" height="30" id="svg_4" rx="15" width="30" x="56" y="45"/>
  <path d="m164.27,52.87l32.35,0l0,12.1l-32.35,0l0,-12.1zm1.15,27.65l36.58,0l0,12.48l-52.03,0l0,-67.2l50.78,0l0,12.48l-35.33,0l0,42.24zm61.45,12.48l-21.7,-51.65l15.46,0l18.04,44.45l-7.68,0l18.72,-44.45l14.4,0l-21.79,51.65l-15.45,0zm67.58,0.77c-5.89,0 -11.07,-1.15 -15.55,-3.46c-4.42,-2.3 -7.84,-5.44 -10.27,-9.41c-2.44,-4.03 -3.65,-8.6 -3.65,-13.72c0,-5.19 1.18,-9.76 3.55,-13.73c2.43,-4.03 5.73,-7.17 9.89,-9.41c4.16,-2.3 8.86,-3.46 14.11,-3.46c5.06,0 9.6,1.09 13.63,3.27c4.1,2.11 7.33,5.18 9.7,9.21c2.37,3.97 3.55,8.74 3.55,14.31c0,0.57 -0.03,1.25 -0.1,2.01c-0.06,0.71 -0.12,1.38 -0.19,2.02l-41.95,0l0,-8.74l34.08,0l-5.76,2.6c0,-2.69 -0.54,-5.03 -1.63,-7.01c-1.09,-1.99 -2.59,-3.52 -4.51,-4.61c-1.92,-1.15 -4.16,-1.73 -6.72,-1.73c-2.56,0 -4.84,0.58 -6.82,1.73c-1.92,1.09 -3.42,2.66 -4.51,4.7c-1.09,1.99 -1.63,4.36 -1.63,7.11l0,2.3c0,2.82 0.6,5.31 1.82,7.49c1.28,2.11 3.04,3.74 5.28,4.9c2.3,1.08 4.99,1.63 8.06,1.63c2.76,0 5.16,-0.42 7.2,-1.25c2.12,-0.83 4.04,-2.08 5.76,-3.74l7.97,8.64c-2.37,2.68 -5.34,4.76 -8.93,6.24c-3.58,1.4 -7.71,2.11 -12.38,2.11zm66.32,-53.19c4.1,0 7.75,0.84 10.95,2.5c3.26,1.6 5.82,4.1 7.68,7.49c1.85,3.33 2.78,7.61 2.78,12.86l0,29.57l-14.98,0l0,-27.26c0,-4.16 -0.92,-7.24 -2.78,-9.22c-1.79,-1.98 -4.35,-2.98 -7.68,-2.98c-2.37,0 -4.51,0.52 -6.43,1.54c-1.86,0.96 -3.33,2.46 -4.42,4.51c-1.02,2.05 -1.53,4.67 -1.53,7.87l0,25.54l-14.98,0l0,-51.65l14.31,0l0,14.31l-2.69,-4.32c1.85,-3.46 4.51,-6.12 7.96,-7.97c3.46,-1.86 7.4,-2.79 11.81,-2.79zm56.11,53.19c-6.08,0 -10.82,-1.54 -14.21,-4.61c-3.39,-3.14 -5.09,-7.78 -5.09,-13.92l0,-45.31l14.98,0l0,45.12c0,2.17 0.57,3.87 1.72,5.09c1.16,1.15 2.72,1.72 4.71,1.72c2.37,0 4.38,-0.64 6.05,-1.92l4.03,10.56c-1.54,1.09 -3.39,1.92 -5.57,2.5c-2.11,0.51 -4.32,0.77 -6.62,0.77zm-27.27,-39.75l0,-11.52l35.81,0l0,11.52l-35.81,0zm47.87,38.98l0,-71.23l14.97,0l0,71.23l-14.97,0zm35.4,19.39c-2.69,0 -5.35,-0.41 -7.97,-1.25c-2.62,-0.83 -4.77,-1.98 -6.43,-3.45l5.47,-10.66c1.15,1.03 2.46,1.83 3.94,2.4c1.53,0.58 3.04,0.87 4.51,0.87c2.11,0 3.77,-0.52 4.99,-1.54c1.28,-0.96 2.43,-2.59 3.46,-4.9l2.68,-6.33l1.16,-1.63l18.52,-44.55l14.4,0l-23.32,54.82c-1.67,4.16 -3.59,7.42 -5.76,9.79c-2.12,2.37 -4.48,4.03 -7.11,4.99c-2.56,0.96 -5.41,1.44 -8.54,1.44zm8.83,-17.37l-23.04,-53.67l15.46,0l17.85,43.2l-10.27,10.47z" fill="red" id="svg_5" stroke="black" stroke-width="5"/>
  <rect fill="#ffffff" height="100" id="svg_6" stroke="#ffffff" width="383" x="134" y="18"/>
  <text fill="#000000" font-family="Serif" font-size="25" font-weight="bold" id="svg_7" stroke="#000000" stroke-width="0" text-anchor="middle" transform="matrix(3.34022 0 0 4.34552 -443.514 -192.3)" x="226" xml:space="preserve" y="66">Next-Event</text>
 </g>
</svg>